nColumns=19
nRows=73
DataType=double
version=3
OpenSimVersion=4.1
endheader
time	ground_force_1_vx	ground_force_1_vy	ground_force_1_vz	ground_force_1_px	ground_force_1_py	ground_force_1_pz	ground_force_1_mx	ground_force_1_my	ground_force_1_mz	ground_force_2_vx	ground_force_2_vy	ground_force_2_vz	ground_force_2_px	ground_force_2_py	ground_force_2_pz	ground_force_2_mx	ground_force_2_my	ground_force_2_mz
1.795	0	0	0	0.158486	0	-0.204857	0	0	0	0	0	0	1.37963	0	-0.373456	0	0	0
1.8	0	0	0	0.148632	0	-0.203873	0	0	0	0	0	0	1.39642	0	-0.375761	0	0	0
1.805	0	0	0	0.139897	0	-0.20339	0	0	0	0	0	0	1.40892	0	-0.377549	0	0	0
1.81	0	0	0	0.132801	0	-0.20253	0	0	0	0	0	0	1.41747	0	-0.378931	0	0	0
1.815	0	0	0	0.126375	0	-0.205681	0	0	0	0	0	0	1.42234	0	-0.380252	0	0	0
1.82	0	0	0	0.122364	0	-0.205973	0	0	0	0	0	0	1.42443	0	-0.381402	0	0	0
1.825	0	0	0	0.120583	0	-0.207596	0	0	0	0	0	0	1.42428	0	-0.382692	0	0	0
1.83	0	0	0	0.121036	0	-0.209617	0	0	0	0	0	0	1.42196	0	-0.383809	0	0	0
1.835	0	0	0	0.124112	0	-0.211548	0	0	0	0	0	0	1.4169	0	-0.383548	0	0	0
1.84	0	0	0	0.129469	0	-0.213679	0	0	0	0	0	0	1.4094	0	-0.38221	0	0	0
1.845	0	0	0	0.137057	0	-0.215392	0	0	0	0	0	0	1.3995	0	-0.380495	0	0	0
1.85	0	0	0	0.146458	0	-0.217565	0	0	0	0	0	0	1.38732	0	-0.378501	0	0	0
1.855	0	0	0	0.154285	0	-0.218412	0	0	0	0	0	0	1.37268	0	-0.376094	0	0	0
1.86	0	0	0	0.170785	0	-0.218766	0	0	0	0	0	0	1.35624	0	-0.373184	0	0	0
1.865	0	0	0	0.185702	0	-0.218874	0	0	0	0	0	0	1.33788	0	-0.369599	0	0	0
1.87	0	0	0	0.201484	0	-0.2189	0	0	0	-38.5101	51.1778	-9.55681	1.31776	0	-0.365743	0	-6.57507	0
1.875	0	0	0	0.218774	0	-0.217984	0	0	0	-83.0458	196.501	7.02678	1.1485	0	-0.405743	0	-5.64529	0
1.88	0	0	0	0.236141	0	-0.217439	0	0	0	-144.657	428.859	45.3082	1.10258	0	-0.399347	0	-4.03464	0
1.885	0	0	0	0.254892	0	-0.216293	0	0	0	-209.457	731.317	104.555	1.10181	0	-0.382653	0	0.406313	0
1.89	0	0	0	0.274327	0	-0.214889	0	0	0	-252.427	1057.79	170.244	1.09897	0	-0.3684	0	5.82308	0
1.895	0	0	0	0.294564	0	-0.213234	0	0	0	-268.245	1378.11	209.647	1.0914	0	-0.356735	0	2.92212	0
1.9	0	0	0	0.315255	0	-0.211469	0	0	0	-289.226	1676.88	191.885	1.07599	0	-0.347927	0	-13.5284	0
1.905	0	0	0	0.336209	0	-0.210529	0	0	0	-335.965	1929.42	107.541	1.06029	0	-0.342236	0	-30.7349	0
1.91	0	0	0	0.357903	0	-0.208459	0	0	0	-396.112	2118.02	-21.6582	1.05217	0	-0.339588	0	-33.2575	0
1.915	0	0	0	0.37956	0	-0.206742	0	0	0	-461.265	2256.27	-148.957	1.04576	0	-0.339458	0	-20.5812	0
1.92	0	0	0	0.401458	0	-0.205334	0	0	0	-516.488	2369.36	-222.22	1.03458	0	-0.340206	0	-1.74364	0
1.925	0	0	0	0.42375	0	-0.204257	0	0	0	-534.095	2471.39	-214.69	1.01813	0	-0.340526	0	10.859	0
1.93	0	0	0	0.446746	0	-0.205104	0	0	0	-508.417	2566.76	-137.177	0.993657	0	-0.340125	0	10.3456	0
1.935	0	0	0	0.469523	0	-0.202472	0	0	0	-445.696	2647.86	-31.5291	0.961687	0	-0.339817	0	-0.975537	0
1.94	0	0	0	0.493287	0	-0.202733	0	0	0	-354.972	2703.42	53.922	0.927481	0	-0.340383	0	-9.8459	0
1.945	0	0	0	0.518071	0	-0.202267	0	0	0	-255.915	2730.59	91.4566	0.893988	0	-0.341831	0	-5.76232	0
1.95	0	0	0	0.543748	0	-0.201412	0	0	0	-162.798	2734.43	87.212	0.862558	0	-0.3432	0	4.09865	0
1.955	0	0	0	0.570302	0	-0.201961	0	0	0	-74.3888	2719.84	67.9346	0.833769	0	-0.343442	0	6.7733	0
1.96	0	0	0	0.598288	0	-0.202248	0	0	0	14.0537	2685.08	55.7251	0.8061	0	-0.342319	0	-0.748782	0
1.965	0	0	0	0.627276	0	-0.202761	0	0	0	100.924	2623.15	54.9942	0.778034	0	-0.340493	0	-15.3765	0
1.97	0	0	0	0.657847	0	-0.202909	0	0	0	183.03	2532.09	53.4801	0.750124	0	-0.338565	0	-31.0882	0
1.975	0	0	0	0.689273	0	-0.203427	0	0	0	256.07	2421.79	32.1804	0.724221	0	-0.336697	0	-40.6815	0
1.98	0	0	0	0.721709	0	-0.20422	0	0	0	319.251	2302.27	-22.3076	0.702394	0	-0.335098	0	-36.7348	0
1.985	0	0	0	0.754972	0	-0.20493	0	0	0	373.838	2170.43	-107.147	0.684033	0	-0.334331	0	-10.8339	0
1.99	0	0	0	0.788802	0	-0.205736	0	0	0	419.333	2010.5	-200.24	0.664418	0	-0.335072	0	37.097	0
1.995	0	0	0	0.823194	0	-0.206305	0	0	0	456.353	1806.6	-264.741	0.637384	0	-0.337501	0	88.4583	0
2	0	0	0	0.858344	0	-0.206966	0	0	0	482.823	1552.41	-264.782	0.595992	0	-0.340825	0	114.627	0
2.005	0	0	0	0.892575	0	-0.2074	0	0	0	492.739	1252.17	-188.408	0.531975	0	-0.34349	0	92.0223	0
2.01	0	0	0	0.92745	0	-0.208194	0	0	0	478.953	924.328	-64.4268	0.43504	0	-0.344969	0	17.5025	0
2.015	0	0	0	0.962156	0	-0.20899	0	0	0	435.211	603.063	52.0393	0.299503	0	-0.345919	0	-81.5853	0
2.02	0	0	0	0.996983	0	-0.209346	0	0	0	360.952	328.684	109.754	0.139369	0	-0.349084	0	-147.615	0
2.025	0	0	0	1.03109	0	-0.21122	0	0	0	265.771	132.933	91.5058	0.240383	0	-0.347364	0	-127.866	0
2.03	0	0	0	1.06458	0	-0.212834	0	0	0	170.522	18.6323	22.7865	0.361175	0	-0.344591	0	-38.1843	0
2.035	0	0	0	1.09755	0	-0.214916	0	0	0	0	0	0	0.337336	0	-0.346143	0	0	0
2.04	0	0	0	1.13055	0	-0.217595	0	0	0	0	0	0	0.315621	0	-0.348428	0	0	0
2.045	0	0	0	1.16186	0	-0.219367	0	0	0	0	0	0	0.294521	0	-0.35049	0	0	0
2.05	0	0	0	1.19255	0	-0.221623	0	0	0	0	0	0	0.274071	0	-0.351864	0	0	0
2.055	0	0	0	1.22173	0	-0.223541	0	0	0	0	0	0	0.257011	0	-0.350386	0	0	0
2.06	0	0	0	1.24942	0	-0.225637	0	0	0	0	0	0	0.237148	0	-0.344304	0	0	0
2.065	0	0	0	1.27542	0	-0.227278	0	0	0	0	0	0	0.216676	0	-0.341227	0	0	0
2.07	0	0	0	1.2996	0	-0.228979	0	0	0	0	0	0	0.199774	0	-0.336418	0	0	0
2.075	0	0	0	1.32212	0	-0.230598	0	0	0	0	0	0	0.188185	0	-0.330684	0	0	0
2.08	0	0	0	1.34259	0	-0.231952	0	0	0	0	0	0	0.173057	0	-0.325226	0	0	0
2.085	0	0	0	1.36022	0	-0.233231	0	0	0	0	0	0	0.159471	0	-0.321222	0	0	0
2.09	0	0	0	1.37515	0	-0.23425	0	0	0	0	0	0	0.14732	0	-0.317877	0	0	0
2.095	0	0	0	1.38735	0	-0.235396	0	0	0	0	0	0	0.137491	0	-0.315071	0	0	0
2.1	0	0	0	1.39611	0	-0.236867	0	0	0	0	0	0	0.128738	0	-0.312476	0	0	0
2.105	0	0	0	1.40209	0	-0.238857	0	0	0	0	0	0	0.124232	0	-0.312123	0	0	0
2.11	0	0	0	1.40507	0	-0.240972	0	0	0	0	0	0	0.121068	0	-0.31332	0	0	0
2.115	0	0	0	1.40552	0	-0.243202	0	0	0	0	0	0	0.121214	0	-0.312379	0	0	0
2.12	0	0	0	1.40349	0	-0.245654	0	0	0	0	0	0	0.123276	0	-0.313055	0	0	0
2.125	0	0	0	1.39917	0	-0.247783	0	0	0	0	0	0	0.12692	0	-0.313715	0	0	0
2.13	0	0	0	1.39237	0	-0.248902	0	0	0	0	0	0	0.131574	0	-0.314774	0	0	0
2.135	0	0	0	1.38346	0	-0.2497	0	0	0	0	0	0	0.140824	0	-0.318049	0	0	0
2.14	0	0	0	1.37216	0	-0.250178	0	0	0	0	0	0	0.149846	0	-0.320663	0	0	0
2.145	0	0	0	1.35861	0	-0.250153	0	0	0	0	0	0	0.16041	0	-0.323104	0	0	0
2.15	0	0	0	1.34311	0	-0.25105	0	0	0	0	0	0	0.172377	0	-0.325588	0	0	0
2.155	0	0	0	1.3258	0	-0.251965	0	0	0	0	0	0	0.185738	0	-0.32823	0	0	0
